<svg xmlns="http://www.w3.org/2000/svg" viewBox="0 0 581 880">
<defs>
  <style>@import url('https://fonts.googleapis.com/css2?family=Marck+Script&amp;display=swap');</style>
</defs>
<!-- Bowl of Hygieia symbol -->
<g transform="translate(0,761) scale(0.1,-0.1)" fill="#2a2a2a" stroke="none">
<path d="M2480 6186 c-73 -19 -141 -49 -198 -87 -48 -32 -162 -138 -162 -150
0 -4 -16 -33 -35 -65 -20 -33 -46 -90 -57 -129 -18 -58 -22 -94 -22 -210 1
-114 5 -152 21 -203 44 -132 130 -241 251 -316 75 -47 240 -126 356 -171 62
-24 202 -71 311 -105 360 -111 468 -160 543 -245 55 -63 66 -110 59 -258 -6
-137 -23 -210 -72 -312 -41 -85 -100 -158 -181 -222 -59 -48 -83 -62 -177
-102 l-47 -20 0 -121 c0 -139 -8 -132 112 -101 169 43 330 135 456 261 39 38
98 111 131 161 93 141 141 283 156 459 13 152 -43 329 -135 433 -88 99 -227
177 -415 233 -44 14 -174 42 -290 64 -115 22 -249 51 -297 65 -194 56 -344
139 -437 240 -53 59 -94 135 -110 206 -14 59 -14 166 0 231 24 111 104 225
189 268 60 30 149 42 227 30 155 -25 261 -108 298 -234 l15 -50 -56 -53 -57
-52 5 -74 c4 -55 12 -86 32 -123 42 -75 137 -196 175 -221 50 -34 93 -16 126
53 20 43 74 233 82 289 8 60 -23 124 -77 161 -37 25 -48 41 -80 121 -56 140
-112 216 -203 276 -87 57 -158 79 -277 83 -69 2 -124 -1 -160 -10z"/>
<path d="M800 4500
c0 -23 29 -66 59 -88 54 -40 120 -62 230 -77 156 -22 242 -48 376 -115 91 -45
168 -95 316 -207 214 -161 295 -215 406 -268 144 -70 361 -126 541 -141 l82
-7 0 -368 c0 -426 -11 -389 114 -389 l76 0 2 395 3 396 68 24 c99 34 171 81
237 153 109 118 167 267 177 453 7 123 -3 163 -52 214 l-32 35 -1302 0 c-902
0 -1301 -3 -1301 -10z"/>
<path d="M3964 4488 c3 -13 11 -57 17 -98 17 -116 -5 -289 -51
-414 -12 -32 -20 -59 -18 -61 2 -3 60 39 129 92 68 53 155 116 192 141 159
102 338 167 527 190 89 11 158 35 211 74 30 22 59 65 59 88 0 7 -168 10 -536
10 l-536 0 6 -22z"/>
<path d="M2678 3564 c-32 -7 -84 -27 -117 -44 -72 -36 -177 -131
-221 -200 -86 -134 -93 -310 -18 -452 17 -32 56 -82 87 -112 65 -61 158 -111
281 -151 67 -21 112 -28 208 -33 74 -3 152 0 198 7 142 23 279 81 391 165 137
103 194 227 163 357 -17 68 -75 129 -151 155 -75 26 -245 26 -351 0 l-78 -19
0 -87 0 -86 58 10 c32 5 74 6 95 2 54 -10 72 -44 68 -128 -1 -38 -57 -97 -116
-123 -114 -51 -316 -57 -441 -15 -62 21 -135 74 -156 113 -21 41 -27 92 -17
162 11 77 44 143 87 173 15 11 44 25 65 33 l37 13 0 138 c0 76 -3 138 -7 137
-5 0 -34 -7 -65 -15z"/>
<path d="M2695 3076 c-27 -18 -58 -43 -69 -54 -18 -21 -18 -22 1
-59 11 -21 32 -45 46 -53 25 -14 28 -13 52 11 24 24 26 31 23 107 l-3 82 -50
-34z"/>
<path d="M2412 2642 c-4 -9 -7 -73 -7 -142 0 -117 2 -129 28 -182
37 -75 127 -158 222 -203 41 -20 121 -46 182 -60 59 -13 202 -33 317 -44 l210 -21 53 -37 c49
-34 55 -35 70 -21 13 14 14 21 4 46 -40 96 -156 140 -496 188 -97 14 -132 23
-189 53 -51 26 -81 50 -108 86 -42 54 -78 155 -78 215 0 36 -2 38 -55 60 -30
12 -75 35 -100 51 -41 26 -46 27 -53 11z"/>
<path d="M2814 2511 c-2 -2 -4 -56 -4 -118 l0
-114 43 -19 c23 -10 66 -23 95 -28 l52 -9 0 146 0 146 -91 0 c-49 0 -92 -1
-95 -4z"/>
<path d="M2810 1875 l0 -117 -31 -29 c-33 -31 -110 -58 -243 -84 -91 -19 -165
-46 -206 -76 -22 -17 -56 -25 -157 -36 -155 -17 -250 -43 -283 -78 l-23 -25
1047 0 c953 0 1047 1 1035 16 -17 20 -74 49 -124 63 -22 5 -94 15 -160 21
-108 10 -128 15 -195 49 -71 36 -112 49 -275 85 -38 9 -90 26 -115 39 -63 32
-80 70 -80 178 l0 86 -57 7 c-32 4 -75 9 -95 13 l-38 6 0 -118z"/>
</g>
<!-- Text: .Остео Клиник. -->
<text x="290" y="830" text-anchor="middle" 
      font-family="'Marck Script', cursive" font-size="72" fill="#2a2a2a">
  .Остео Клиник.
</text>
</svg>
